<svg version="1.2" xmlns="http://www.w3.org/2000/svg" viewBox="0 0 444 410" width="444" height="410"><style>.a{fill:#3054bc}</style><path class="a" d="m392.7 97.2h-197.3c-1.4 0-2.8-0.9-3.5-2.3l-39.1-71.8c-0.2-0.4-0.4-0.8-0.3-1.3 0.3-2.1 2-3.8 4.1-3.8h275c2.1 0 3.8 1.7 4.1 3.8 0.1 0.5-0.1 0.9-0.3 1.3l-39.1 71.8c-0.7 1.4-2.1 2.3-3.6 2.3z"/><path class="a" d="m92.1 22.3l100.2 169.9c0.7 1.3 0.8 2.9 0 4.1l-37.1 67.3c-0.2 0.4-0.5 0.7-0.9 0.8-1.9 0.8-4.1 0.1-5.1-1.7l-139.6-236.9c-1.1-1.8-0.6-4.1 0.9-5.3 0.3-0.3 0.8-0.4 1.2-0.4l76.8 0.1c1.5 0 2.9 0.8 3.6 2.1z"/><path class="a" d="m184.6 320.8l97.2-171.7c0.8-1.2 2.1-2 3.6-2.1l76.8-1.4c0.4 0 0.9 0.1 1.2 0.4 1.6 1.2 2 3.5 1 5.3l-135.5 239.3c-1 1.8-3.2 2.5-5.1 1.8-0.4-0.1-0.7-0.5-0.9-0.8l-38.3-66.7c-0.7-1.3-0.7-2.8 0-4.1z"/></svg>