<svg version="1.2" xmlns="http://www.w3.org/2000/svg" viewBox="0 0 3272 631" width="3272" height="631"><style>tspan{white-space:pre}.a{fill:#3b58a7}.b{font-size: 500px;fill: #3b58a7;font-weight: 700;font-family: "Montserrat-Bold", "Montserrat"}</style><path class="a" d="m622.4 159.8h-284.3c-2.1 0-4.1-1.2-5.2-3.2l-56.3-103.4c-0.3-0.6-0.5-1.3-0.4-2 0.5-3.1 3-5.4 5.9-5.4h396.4c2.9 0 5.4 2.3 5.9 5.4 0.1 0.7-0.1 1.4-0.4 2l-56.4 103.4c-1.1 2-3 3.2-5.2 3.2z"/><path class="a" d="m189.2 51.9l144.3 244.9c1.1 1.9 1.2 4.1 0.1 6l-53.5 96.9c-0.3 0.5-0.7 1-1.3 1.3-2.7 1-5.9 0-7.4-2.6l-201.2-341.4c-1.5-2.6-0.9-5.9 1.4-7.7 0.4-0.4 1.1-0.5 1.7-0.5l110.7 0.1c2.2 0 4.1 1.2 5.2 3z"/><path class="a" d="m322.5 482.2l140.1-247.4c1.1-1.9 3-3 5.1-3.1l110.7-2c0.6 0 1.3 0.1 1.8 0.5 2.2 1.8 2.9 5.1 1.4 7.7l-195.3 344.8c-1.4 2.6-4.6 3.7-7.3 2.7-0.6-0.2-1-0.7-1.3-1.3l-55.2-96c-1-1.8-1-4.1 0-5.9z"/><text style="transform:matrix(1,0,0,1,710.066,489.25)" ><tspan x="0" y="0" class="b">VIDULUM
</tspan></text></svg>