<?xml version="1.0" encoding="utf-8"?>
<!-- Generator: Adobe Illustrator 26.0.2, SVG Export Plug-In . SVG Version: 6.00 Build 0)  -->
<svg version="1.1" id="Layer_1" xmlns="http://www.w3.org/2000/svg" xmlns:xlink="http://www.w3.org/1999/xlink" x="0px" y="0px"
	 viewBox="0 0 1100 1100" style="enable-background:new 0 0 1100 1100;" xml:space="preserve">
<style type="text/css">
	.st0{fill:#FCFCFC;}
	.st1{fill:#3054BC;}
</style>
<path class="st0" d="M910.6,189.4C814.3,93,686.2,40,550,40C268.8,40,40,268.8,40,550s228.8,510,510,510
	c136.2,0,264.4-53,360.6-149.4C1007,814.3,1060,686.2,1060,550S1007.1,285.7,910.6,189.4z"/>
<g>
	<path class="st1" d="M800.1,425.7H510.5c-2.2,0-4.2-1.2-5.3-3.3L447.9,317c-0.3-0.6-0.5-1.3-0.4-2c0.5-3.2,3-5.6,6-5.6h403.7
		c3,0,5.6,2.4,6,5.6c0.1,0.7-0.1,1.4-0.4,2l-57.4,105.4C804.3,424.4,802.3,425.7,800.1,425.7z"/>
</g>
<g>
	<path class="st1" d="M358.8,315.7l147,249.5c1.1,1.9,1.1,4.2,0.1,6.1L451.4,670c-0.3,0.6-0.8,1-1.3,1.3c-2.7,1.1-6,0-7.5-2.6
		l-205-347.8c-1.5-2.6-0.9-5.9,1.4-7.8c0.5-0.4,1.1-0.6,1.8-0.6l112.8,0.2C355.7,312.7,357.7,313.9,358.8,315.7z"/>
</g>
<g>
	<path class="st1" d="M494.6,754l142.7-252c1.1-1.9,3-3.1,5.2-3.1l112.7-2.1c0.6,0,1.3,0.1,1.8,0.5c2.3,1.8,3,5.2,1.5,7.8
		L559.6,856.4c-1.5,2.6-4.7,3.7-7.5,2.7c-0.6-0.2-1.1-0.7-1.4-1.3L494.5,760C493.5,758.2,493.5,755.9,494.6,754z"/>
</g>
</svg>
